# xmcd
# 
# Track frame offsets:
#     150
#     20037
#     42625
#     65312
#     80450
#     97885
#     124607
#     140162
#     157450
#     179542
# 
# Disc length: 2668
# 
# Revision: 3
# Processed by: cddbd v1.5.2PL0 Copyright (c) Steve Scherf et al.
# Submitted via: fre:ac v1.0.31
# 
DISCID=900a6a0a
DTITLE=Nancy Wilson - Keep You Satisfied
DYEAR=1984
DGENRE=Jazz Vocal
TTITLE0=Just to Keep You in My Life
TTITLE1=American Wedding Song
TTITLE2=We've Got Love
TTITLE3=Early Morning
TTITLE4=Winter Green and Summer Blue
TTITLE5=Just to Keep You Satisfied
TTITLE6=Is It Too Late
TTITLE7=Heaven Bound
TTITLE8=Careless Whisper
TTITLE9=If We Were Lovers
EXTD=
EXTT0=
EXTT1=
EXTT2=
EXTT3=
EXTT4=
EXTT5=
EXTT6=
EXTT7=
EXTT8=
EXTT9=
PLAYORDER=
